<svg width="16" height="16" viewBox="0 0 16 16" fill="none" xmlns="http://www.w3.org/2000/svg">
<path d="M8 12C7.8975 12 7.7998 11.9794 7.7108 11.9422L7.47627 11.7868L7.46967 11.7803L4.46967 8.78033C4.17678 8.48744 4.17678 8.01256 4.46967 7.71967C4.76256 7.42678 5.23744 7.42678 5.53033 7.71967L7.25 9.43934L7.25 2.75C7.25 2.33579 7.58579 2 8 2C8.41422 2 8.75 2.33579 8.75 2.75L8.75 9.43934L10.4697 7.71967C10.7626 7.42678 11.2374 7.42678 11.5303 7.71967C11.8232 8.01257 11.8232 8.48744 11.5303 8.78033L8.5313 11.7794L8.52207 11.7885C8.38705 11.9194 8.20294 12 8 12ZM3.5 11.75C3.5 11.3358 3.16421 11 2.75 11C2.33579 11 2 11.3358 2 11.75V14.2501C2 14.6643 2.33579 15.0001 2.75 15.0001H13.25C13.6642 15.0001 14 14.6643 14 14.2501V11.75C14 11.3358 13.6642 11 13.25 11C12.8358 11 12.5 11.3358 12.5 11.75V13.5001H3.5V11.75Z" fill="#192435"/>
</svg>
