<svg width="16" height="16" viewBox="0 0 16 16" fill="none" xmlns="http://www.w3.org/2000/svg">
<path d="M2.1197 10.4865C2.00917 10.597 1.93594 10.7393 1.91024 10.8935L1.43883 13.7219C1.39901 13.9608 1.47703 14.2043 1.6483 14.3756C1.81957 14.5468 2.06301 14.6248 2.30193 14.585L5.13036 14.1136C5.28455 14.0879 5.42685 14.0147 5.53739 13.9042L14.0227 5.41887C14.8363 4.60528 14.8363 3.28618 14.0227 2.47259L13.5513 2.00119C12.7377 1.18759 11.4186 1.18759 10.605 2.00119L2.1197 10.4865ZM3.09104 12.9328L3.35032 11.3772L9.95686 4.77064L11.2532 6.067L4.64668 12.6735L3.09104 12.9328ZM12.3139 5.00634L11.0175 3.70998L11.6656 3.06185C11.8935 2.83404 12.2628 2.83404 12.4906 3.06185L12.962 3.53325C13.1898 3.76106 13.1898 4.1304 12.962 4.35821L12.3139 5.00634Z" fill="#192435"/>
</svg>
