<svg width="32" height="32" viewBox="0 0 32 32" fill="none" xmlns="http://www.w3.org/2000/svg">
<path d="M7 1.5H20.5859C20.7185 1.50004 20.8457 1.55275 20.9395 1.64648L26.3535 7.06055C26.4472 7.15428 26.5 7.28151 26.5 7.41406V29C26.5 29.8284 25.8284 30.5 25 30.5H7C6.17157 30.5 5.5 29.8284 5.5 29V3C5.5 2.17157 6.17157 1.5 7 1.5Z" fill="white" stroke="#BBBBBB"/>
<path d="M20.5 2V6C20.5 6.82843 21.1716 7.5 22 7.5H26" stroke="#BBBBBB"/>
<path d="M16.4997 10.0218C17.5101 10.1063 18.486 10.4457 19.3336 11.012C20.3202 11.6713 21.0895 12.6082 21.5436 13.7044C21.9977 14.8008 22.1159 16.0074 21.8844 17.1712C21.6529 18.3351 21.0819 19.4044 20.2428 20.2435C19.4037 21.0826 18.3344 21.6536 17.1706 21.8851C16.0067 22.1166 14.8001 21.9984 13.7038 21.5443C12.6075 21.0902 11.6707 20.3209 11.0114 19.3343C10.445 18.4867 10.1056 17.5108 10.0211 16.5003C9.99816 16.2252 10.2236 16.0005 10.4997 16.0003H15.4997C15.7758 16.0003 15.9997 15.7765 15.9997 15.5003V10.5003C15.9998 10.2243 16.2246 9.99883 16.4997 10.0218ZM13.5006 9.02572C13.7753 8.99816 13.9995 9.22432 13.9997 9.50033V13.5003C13.9997 13.7765 13.7758 14.0003 13.4997 14.0003H9.49965C9.22365 14.0002 8.99749 13.776 9.02504 13.5013C9.07375 13.016 9.19318 12.5395 9.38051 12.0872C9.63179 11.4806 10.0002 10.9295 10.4645 10.4652C10.9288 10.0009 11.4799 9.63246 12.0866 9.38119C12.5388 9.19385 13.0153 9.07442 13.5006 9.02572Z" fill="#FAC299"/>
<path d="M16 18C16 16.8954 16.8954 16 18 16H26C27.1046 16 28 16.8954 28 18V26C28 27.1046 27.1046 28 26 28H18C16.8954 28 16 27.1046 16 26V18Z" fill="#F36700"/>
<path d="M22.0606 18.4596C22.9739 18.4596 23.6473 18.6596 24.0806 19.0596C24.5206 19.4529 24.7406 20.0029 24.7406 20.7096C24.7406 21.0296 24.6939 21.3363 24.6006 21.6296C24.5073 21.9163 24.3506 22.1729 24.1306 22.3996C23.9173 22.6263 23.6339 22.8063 23.2806 22.9396C22.9339 23.0729 22.5039 23.1396 21.9906 23.1396H21.3906V25.5996H19.6906V18.4596H22.0606ZM22.0006 19.8496H21.3906V21.7496H21.8406C22.0739 21.7496 22.2773 21.7163 22.4506 21.6496C22.6306 21.5829 22.7706 21.4763 22.8706 21.3296C22.9706 21.1829 23.0206 20.9929 23.0206 20.7596C23.0206 20.4663 22.9373 20.2429 22.7706 20.0896C22.6039 19.9296 22.3473 19.8496 22.0006 19.8496Z" fill="white"/>
</svg>
