<svg width="243" height="242" viewBox="0 0 243 242" fill="none" xmlns="http://www.w3.org/2000/svg">
<g opacity="0.2" filter="url(#filter0_d_3123_1290)">
<path d="M58.311 78.0953C58.311 76.9313 59.2561 75.9885 60.4219 75.9885H129.554L143.803 90.209V187.645C143.803 188.809 142.858 189.752 141.692 189.752H60.4219C59.2561 189.752 58.311 188.809 58.311 187.645V78.0953Z" fill="white"/>
</g>
<g opacity="0.2" filter="url(#filter1_d_3123_1290)">
<path d="M58.311 187.645V78.0953C58.311 77.004 59.1419 76.1076 60.2065 76.0001L60.4219 75.9885H129.554L143.803 90.209V187.645L143.791 187.86C143.691 188.852 142.901 189.64 141.907 189.74L141.692 189.752V91.0812L128.68 78.0953H60.4219V189.752L60.2065 189.74C59.2127 189.64 58.4231 188.852 58.3223 187.86L58.311 187.645ZM141.692 187.645V189.752H60.4219V187.645H141.692Z" fill="#CCCCCC"/>
</g>
<g opacity="0.4" filter="url(#filter2_d_3123_1290)">
<path d="M66.7549 69.6693C66.7549 68.5054 67.6999 67.5626 68.8658 67.5626H137.998L152.247 81.783V179.219C152.247 180.383 151.302 181.326 150.136 181.326H68.8658C67.6999 181.326 66.7549 180.383 66.7549 179.219V69.6693Z" fill="white"/>
</g>
<g opacity="0.4" filter="url(#filter3_d_3123_1290)">
<path d="M66.7549 179.219V69.6693C66.7549 68.5781 67.5857 67.6816 68.6504 67.5742L68.8658 67.5626H137.998L152.247 81.783V179.219L152.235 179.434C152.135 180.426 151.345 181.214 150.351 181.314L150.136 181.326V82.6552L137.124 69.6693H68.8658V181.326L68.6504 181.314C67.6566 181.214 66.867 180.426 66.7662 179.434L66.7549 179.219ZM150.136 179.219V181.326H68.8658V179.219H150.136Z" fill="#CCCCCC"/>
</g>
<g opacity="0.8" filter="url(#filter4_d_3123_1290)">
<path d="M74.1428 62.2936C74.1428 61.1301 75.0875 60.1869 76.2537 60.1869H145.386L159.635 74.4073V171.844C159.635 173.008 158.69 173.95 157.524 173.95H76.2537C75.0875 173.95 74.1428 173.008 74.1428 171.844V62.2936Z" fill="white"/>
</g>
<g opacity="0.8" filter="url(#filter5_d_3123_1290)">
<path d="M74.1428 171.844V62.2936C74.1428 61.2027 74.9735 60.3059 76.0384 60.1982L76.2537 60.1869H145.386L159.635 74.4073V171.844L159.623 172.058C159.523 173.051 158.733 173.839 157.739 173.939L157.524 173.95V75.2795L144.512 62.2936H76.2537V173.95L76.0384 173.939C75.0442 173.839 74.2547 173.051 74.1544 172.058L74.1428 171.844ZM157.524 171.844V173.95H76.2537V171.844H157.524Z" fill="#CCCCCC"/>
</g>
<g filter="url(#filter6_d_3123_1290)">
<path d="M82.5867 53.8678C82.5867 52.7043 83.5313 51.7611 84.6976 51.7611H153.83L168.078 65.9815V163.418C168.078 164.582 167.134 165.525 165.967 165.525H84.6976C83.5313 165.525 82.5867 164.582 82.5867 163.418V53.8678Z" fill="white"/>
</g>
<g filter="url(#filter7_d_3123_1290)">
<path d="M82.5867 163.418V53.8678C82.5867 52.7769 83.4173 51.8801 84.4823 51.7724L84.6976 51.7611H153.83L168.078 65.9815V163.418L168.067 163.633C167.966 164.625 167.177 165.413 166.183 165.513L165.967 165.525V66.8537L152.956 53.8678H84.6976V165.525L84.4823 165.513C83.488 165.413 82.6985 164.625 82.5983 163.633L82.5867 163.418ZM165.967 163.418V165.525H84.6976V163.418H165.967Z" fill="#AAAAAA"/>
</g>
<path d="M152.246 51.7611L167.023 66.5082H153.302C152.719 66.5082 152.246 66.0363 152.246 65.4549V51.7611Z" fill="#AAAAAA"/>
<path d="M83.5321 107.25C83.6704 107.777 83.3833 108.316 82.882 108.502L82.7796 108.536L80.7088 109.085C78.5303 109.654 76.0743 110.223 73.7375 110.267C70.655 110.322 67.5903 109.464 65.5332 106.425L65.3368 106.125C64.853 105.352 64.8466 104.448 65.0154 103.626C65.1859 102.796 65.5639 101.905 66.0418 101.013C67.0003 99.2242 68.4793 97.2175 69.9953 95.3299C71.5165 93.4359 73.1201 91.6052 74.337 90.1852C74.9513 89.4679 75.459 88.8643 75.8199 88.3998C76.0015 88.1659 76.1324 87.9848 76.2178 87.851C76.258 87.7878 76.2791 87.7499 76.2875 87.7341C76.4342 87.2147 76.9556 86.884 77.4971 86.9851C78.0343 87.0862 78.3995 87.576 78.353 88.109L78.3393 88.2144L78.3119 88.3303C78.238 88.5968 78.0923 88.8348 77.9973 88.9844C77.8622 89.1961 77.687 89.4352 77.4897 89.6902C77.0939 90.2 76.5545 90.8394 75.9424 91.5546C74.7054 92.9988 73.1359 94.7874 71.6418 96.6476C70.1432 98.5131 68.7662 100.397 67.9034 102.007C67.4709 102.814 67.1954 103.502 67.0828 104.051C66.9687 104.606 67.0474 104.881 67.1271 105.008L67.2736 105.233C68.8031 107.499 71.0553 108.207 73.6985 108.159C75.7957 108.121 78.0184 107.607 80.1505 107.051L82.2434 106.498L82.35 106.476C82.8778 106.392 83.3939 106.722 83.5321 107.25Z" fill="#AAAAAA"/>
<path d="M75.7831 80.7033C74.9176 81.408 73.8178 82.9596 73.8294 84.7366L73.8368 84.9652C73.9455 86.9898 75.2944 87.981 76.2876 88.5856L76.6992 88.83L76.7953 88.8806C77.2808 89.1049 77.8665 88.9301 78.1452 88.4613C78.4238 87.9926 78.2961 87.3953 77.8665 87.0783L77.7758 87.0182L77.3779 86.7791C76.5588 86.2724 76.029 85.8226 75.9509 84.9347L75.9403 84.7219C75.934 83.7538 76.5968 82.7595 77.1161 82.3371C77.5678 81.9705 77.6365 81.3069 77.2681 80.855C76.9008 80.4041 76.2359 80.3367 75.7831 80.7033Z" fill="#AAAAAA"/>
<path d="M166.072 106.196C165.933 106.723 166.222 107.262 166.723 107.448L166.825 107.482L168.896 108.031C171.073 108.599 173.53 109.169 175.866 109.212C178.949 109.268 182.014 108.41 184.071 105.371L184.268 105.071C184.751 104.297 184.757 103.394 184.589 102.572C184.419 101.742 184.041 100.851 183.563 99.9586C182.604 98.17 181.125 96.1633 179.609 94.2757C178.088 92.3817 176.484 90.551 175.267 89.1311C174.654 88.4137 174.145 87.8101 173.784 87.3456C173.602 87.1118 173.471 86.9306 173.387 86.7968C173.346 86.7336 173.325 86.6957 173.316 86.6799C173.17 86.1606 172.648 85.8298 172.107 85.9309C171.57 86.0321 171.205 86.5219 171.251 87.0549L171.266 87.1602L171.292 87.2761C171.367 87.5426 171.512 87.7807 171.607 87.9302C171.742 88.142 171.917 88.3811 172.114 88.636C172.511 89.1458 173.049 89.7852 173.663 90.5004C174.9 91.9446 176.469 93.7332 177.962 95.5935C179.461 97.459 180.837 99.3424 181.701 100.953C182.134 101.76 182.409 102.448 182.521 102.997C182.635 103.552 182.557 103.827 182.477 103.954L182.331 104.178C180.802 106.445 178.549 107.153 175.905 107.105C173.808 107.067 171.585 106.553 169.453 105.997L167.36 105.443L167.255 105.421C166.726 105.338 166.211 105.668 166.072 106.196Z" fill="#AAAAAA"/>
<path d="M173.821 79.6498C174.687 80.3545 175.787 81.9061 175.775 83.6831L175.767 83.9117C175.658 85.9363 174.31 86.9275 173.317 87.5321L172.905 87.7765L172.809 87.827C172.323 88.0514 171.737 87.8766 171.459 87.4078C171.18 86.9391 171.308 86.3418 171.738 86.0247L171.828 85.9647L172.227 85.7256C173.046 85.2189 173.576 84.7691 173.653 83.8811L173.664 83.6684C173.67 82.7003 173.007 81.7059 172.488 81.2835C172.036 80.917 171.968 80.2534 172.336 79.8015C172.704 79.3506 173.369 79.2832 173.821 79.6498Z" fill="#AAAAAA"/>
<path d="M117.107 86.0724L117.18 86.1524C117.518 86.5664 117.494 87.1763 117.107 87.5618C116.721 87.9474 116.11 87.9716 115.695 87.6345L115.615 87.5618L109.282 81.2416C108.869 80.8308 108.869 80.163 109.282 79.7522C109.694 79.3403 110.363 79.3403 110.775 79.7522L117.107 86.0724Z" fill="#AAAAAA"/>
<path d="M115.615 79.7518L115.695 79.6791C116.11 79.3421 116.721 79.3663 117.107 79.7518C117.494 80.1374 117.518 80.7473 117.18 81.1612L117.107 81.2413L110.775 87.5615C110.363 87.9733 109.694 87.9733 109.282 87.5615C108.869 87.1507 108.869 86.4828 109.282 86.072L115.615 79.7518Z" fill="#AAAAAA"/>
<path d="M140.327 86.0724L140.4 86.1524C140.738 86.5664 140.714 87.1763 140.327 87.5618C139.941 87.9474 139.33 87.9716 138.915 87.6345L138.835 87.5618L132.502 81.2416C132.089 80.8308 132.089 80.163 132.502 79.7522C132.914 79.3403 133.583 79.3403 133.995 79.7522L140.327 86.0724Z" fill="#AAAAAA"/>
<path d="M138.835 79.7518L138.915 79.6791C139.33 79.3421 139.941 79.3663 140.327 79.7518C140.714 80.1374 140.738 80.7473 140.4 81.1612L140.327 81.2413L133.995 87.5615C133.583 87.9733 132.914 87.9733 132.502 87.5615C132.089 87.1507 132.089 86.4828 132.502 86.072L138.835 79.7518Z" fill="#AAAAAA"/>
<path d="M127.971 98.6364C127.971 101.254 126.79 103.377 125.332 103.377C123.875 103.377 122.694 101.254 122.694 98.6364C122.694 96.0188 123.875 93.8962 125.332 93.8962C126.79 93.8962 127.971 96.0188 127.971 98.6364Z" fill="#AAAAAA"/>
<defs>
<filter id="filter0_d_3123_1290" x="43.311" y="67.9885" width="115.492" height="143.763" filterUnits="userSpaceOnUse" color-interpolation-filters="sRGB">
<feFlood flood-opacity="0" result="BackgroundImageFix"/>
<feColorMatrix in="SourceAlpha" type="matrix" values="0 0 0 0 0 0 0 0 0 0 0 0 0 0 0 0 0 0 127 0" result="hardAlpha"/>
<feOffset dy="7"/>
<feGaussianBlur stdDeviation="7.5"/>
<feColorMatrix type="matrix" values="0 0 0 0 0.333333 0 0 0 0 0.333333 0 0 0 0 0.333333 0 0 0 0.1 0"/>
<feBlend mode="normal" in2="BackgroundImageFix" result="effect1_dropShadow_3123_1290"/>
<feBlend mode="normal" in="SourceGraphic" in2="effect1_dropShadow_3123_1290" result="shape"/>
</filter>
<filter id="filter1_d_3123_1290" x="43.311" y="67.9885" width="115.492" height="143.763" filterUnits="userSpaceOnUse" color-interpolation-filters="sRGB">
<feFlood flood-opacity="0" result="BackgroundImageFix"/>
<feColorMatrix in="SourceAlpha" type="matrix" values="0 0 0 0 0 0 0 0 0 0 0 0 0 0 0 0 0 0 127 0" result="hardAlpha"/>
<feOffset dy="7"/>
<feGaussianBlur stdDeviation="7.5"/>
<feColorMatrix type="matrix" values="0 0 0 0 0.333333 0 0 0 0 0.333333 0 0 0 0 0.333333 0 0 0 0.1 0"/>
<feBlend mode="normal" in2="BackgroundImageFix" result="effect1_dropShadow_3123_1290"/>
<feBlend mode="normal" in="SourceGraphic" in2="effect1_dropShadow_3123_1290" result="shape"/>
</filter>
<filter id="filter2_d_3123_1290" x="51.7549" y="59.5626" width="115.492" height="143.763" filterUnits="userSpaceOnUse" color-interpolation-filters="sRGB">
<feFlood flood-opacity="0" result="BackgroundImageFix"/>
<feColorMatrix in="SourceAlpha" type="matrix" values="0 0 0 0 0 0 0 0 0 0 0 0 0 0 0 0 0 0 127 0" result="hardAlpha"/>
<feOffset dy="7"/>
<feGaussianBlur stdDeviation="7.5"/>
<feColorMatrix type="matrix" values="0 0 0 0 0.333333 0 0 0 0 0.333333 0 0 0 0 0.333333 0 0 0 0.1 0"/>
<feBlend mode="normal" in2="BackgroundImageFix" result="effect1_dropShadow_3123_1290"/>
<feBlend mode="normal" in="SourceGraphic" in2="effect1_dropShadow_3123_1290" result="shape"/>
</filter>
<filter id="filter3_d_3123_1290" x="51.7549" y="59.5626" width="115.492" height="143.763" filterUnits="userSpaceOnUse" color-interpolation-filters="sRGB">
<feFlood flood-opacity="0" result="BackgroundImageFix"/>
<feColorMatrix in="SourceAlpha" type="matrix" values="0 0 0 0 0 0 0 0 0 0 0 0 0 0 0 0 0 0 127 0" result="hardAlpha"/>
<feOffset dy="7"/>
<feGaussianBlur stdDeviation="7.5"/>
<feColorMatrix type="matrix" values="0 0 0 0 0.333333 0 0 0 0 0.333333 0 0 0 0 0.333333 0 0 0 0.1 0"/>
<feBlend mode="normal" in2="BackgroundImageFix" result="effect1_dropShadow_3123_1290"/>
<feBlend mode="normal" in="SourceGraphic" in2="effect1_dropShadow_3123_1290" result="shape"/>
</filter>
<filter id="filter4_d_3123_1290" x="59.1428" y="52.1869" width="115.492" height="143.763" filterUnits="userSpaceOnUse" color-interpolation-filters="sRGB">
<feFlood flood-opacity="0" result="BackgroundImageFix"/>
<feColorMatrix in="SourceAlpha" type="matrix" values="0 0 0 0 0 0 0 0 0 0 0 0 0 0 0 0 0 0 127 0" result="hardAlpha"/>
<feOffset dy="7"/>
<feGaussianBlur stdDeviation="7.5"/>
<feColorMatrix type="matrix" values="0 0 0 0 0.333333 0 0 0 0 0.333333 0 0 0 0 0.333333 0 0 0 0.1 0"/>
<feBlend mode="normal" in2="BackgroundImageFix" result="effect1_dropShadow_3123_1290"/>
<feBlend mode="normal" in="SourceGraphic" in2="effect1_dropShadow_3123_1290" result="shape"/>
</filter>
<filter id="filter5_d_3123_1290" x="59.1428" y="52.1869" width="115.492" height="143.763" filterUnits="userSpaceOnUse" color-interpolation-filters="sRGB">
<feFlood flood-opacity="0" result="BackgroundImageFix"/>
<feColorMatrix in="SourceAlpha" type="matrix" values="0 0 0 0 0 0 0 0 0 0 0 0 0 0 0 0 0 0 127 0" result="hardAlpha"/>
<feOffset dy="7"/>
<feGaussianBlur stdDeviation="7.5"/>
<feColorMatrix type="matrix" values="0 0 0 0 0.333333 0 0 0 0 0.333333 0 0 0 0 0.333333 0 0 0 0.1 0"/>
<feBlend mode="normal" in2="BackgroundImageFix" result="effect1_dropShadow_3123_1290"/>
<feBlend mode="normal" in="SourceGraphic" in2="effect1_dropShadow_3123_1290" result="shape"/>
</filter>
<filter id="filter6_d_3123_1290" x="67.5867" y="43.7611" width="115.492" height="143.763" filterUnits="userSpaceOnUse" color-interpolation-filters="sRGB">
<feFlood flood-opacity="0" result="BackgroundImageFix"/>
<feColorMatrix in="SourceAlpha" type="matrix" values="0 0 0 0 0 0 0 0 0 0 0 0 0 0 0 0 0 0 127 0" result="hardAlpha"/>
<feOffset dy="7"/>
<feGaussianBlur stdDeviation="7.5"/>
<feColorMatrix type="matrix" values="0 0 0 0 0.333333 0 0 0 0 0.333333 0 0 0 0 0.333333 0 0 0 0.1 0"/>
<feBlend mode="normal" in2="BackgroundImageFix" result="effect1_dropShadow_3123_1290"/>
<feBlend mode="normal" in="SourceGraphic" in2="effect1_dropShadow_3123_1290" result="shape"/>
</filter>
<filter id="filter7_d_3123_1290" x="67.5867" y="43.7611" width="115.492" height="143.763" filterUnits="userSpaceOnUse" color-interpolation-filters="sRGB">
<feFlood flood-opacity="0" result="BackgroundImageFix"/>
<feColorMatrix in="SourceAlpha" type="matrix" values="0 0 0 0 0 0 0 0 0 0 0 0 0 0 0 0 0 0 127 0" result="hardAlpha"/>
<feOffset dy="7"/>
<feGaussianBlur stdDeviation="7.5"/>
<feColorMatrix type="matrix" values="0 0 0 0 0.333333 0 0 0 0 0.333333 0 0 0 0 0.333333 0 0 0 0.1 0"/>
<feBlend mode="normal" in2="BackgroundImageFix" result="effect1_dropShadow_3123_1290"/>
<feBlend mode="normal" in="SourceGraphic" in2="effect1_dropShadow_3123_1290" result="shape"/>
</filter>
</defs>
</svg>
