<svg width="160" height="165" viewBox="0 0 160 165" fill="none" xmlns="http://www.w3.org/2000/svg">
<g filter="url(#filter0_d_3130_5502)">
<path d="M35.2848 35.2895C35.2848 34.1672 36.1958 33.2574 37.3205 33.2574H103.99L117.731 46.9736V140.955C117.731 142.078 116.82 142.987 115.695 142.987H37.3205C36.1958 142.987 35.2848 142.078 35.2848 140.955V35.2895Z" fill="white"/>
</g>
<g filter="url(#filter1_d_3130_5502)">
<path d="M35.2848 140.955V35.2895C35.2848 34.2372 36.0858 33.3723 37.1129 33.2683L37.3205 33.2574H103.99L117.731 46.9736V140.955L117.72 141.162C117.623 142.119 116.862 142.879 115.903 142.976L115.695 142.987V47.8149L103.147 35.2895H37.3205V142.987L37.1129 142.976C36.154 142.879 35.3927 142.119 35.296 141.162L35.2848 140.955ZM115.695 140.955V142.987H37.3205V140.955H115.695Z" fill="#AAAAAA"/>
</g>
<path fill-rule="evenodd" clip-rule="evenodd" d="M76.5078 60.9894C78.0814 60.8827 82.047 60.6897 86.6731 60.6897C91.4723 60.6897 94.4495 61.1052 95.3381 61.3125C95.3381 64.7385 93.9885 71.9034 90.6723 72.5232C87.3398 73.146 81.6734 73.146 80.3401 70.9667C79.2744 69.2222 78.1191 65.2567 77.6743 63.4929L76.5078 62.9473L75.3414 63.4929C74.8966 65.2567 73.7413 69.2222 72.6756 70.9667C71.3422 73.146 65.6758 73.146 62.3434 72.5232C59.0272 71.9034 57.6776 64.7385 57.6776 61.3125C58.5661 61.1052 61.5434 60.6897 66.3425 60.6897C70.9687 60.6897 74.9342 60.8827 76.5078 60.9894Z" fill="#AAAAAA"/>
<path fill-rule="evenodd" clip-rule="evenodd" d="M35.1148 76.6872C35.1148 75.7078 35.8863 74.9143 36.838 74.9143C37.7897 74.9143 38.5602 75.7078 38.5602 76.6872V92.9973C38.5602 93.5846 39.0233 94.0611 39.5944 94.0611C40.1654 94.0611 40.6285 93.5846 40.6285 92.9973V79.524C40.6285 78.5445 41.399 77.751 42.3507 77.751C43.3024 77.751 44.0739 78.5445 44.0739 79.524V94.0611V96.9872C44.0739 97.6933 44.9666 97.9656 45.3412 97.3733L49.1408 91.3575C49.6894 90.4898 50.804 90.2216 51.6681 90.7489C52.4794 91.2427 52.8081 92.279 52.4356 93.17L46.1412 108.244C44.307 111.748 41.5059 113.551 37.8711 114.271C36.2955 114.583 33.5697 114.671 32.0134 114.271C27.6183 113.14 24.7369 109.104 24.1509 104.481L24.0884 103.989V98.3151V94.0611V84.4872C24.0884 83.5088 24.8597 82.7142 25.8113 82.7142C26.7623 82.7142 27.5338 83.5088 27.5338 84.4872V92.9973C27.5338 93.5846 27.9969 94.0611 28.568 94.0611C29.139 94.0611 29.6021 93.5846 29.6021 92.9973V80.2331C29.6021 79.2537 30.3726 78.4602 31.3243 78.4602C32.276 78.4602 33.0475 79.2537 33.0475 80.2331V92.9973C33.0475 93.5846 33.5106 94.0611 34.0806 94.0611C34.6517 94.0611 35.1148 93.5846 35.1148 92.9973V76.6872Z" fill="white"/>
<path d="M37.0905 71.8725C39.0122 71.971 40.5654 73.1933 41.2433 74.8321C41.5975 74.7478 41.967 74.7021 42.3507 74.7021L42.6042 74.7082C45.2017 74.8423 47.1275 77.0287 47.1275 79.5231V88.9933C48.6177 87.3962 51.0351 86.9329 53.0392 88.019L53.2591 88.146L53.4555 88.2709C55.3752 89.5664 56.1131 92.0068 55.3365 94.1303L55.2541 94.3416L48.9607 109.415L48.9088 109.536L48.8477 109.653C46.6054 113.94 43.1151 116.238 38.8778 117.173L38.4656 117.26C37.4488 117.461 36.1785 117.573 34.9672 117.585C33.9341 117.596 32.7503 117.537 31.6958 117.323L31.251 117.222C25.5448 115.754 22.0478 110.734 21.1959 105.382L21.1214 104.863L21.0587 104.37L21.0349 104.18V84.4863C21.0351 81.9117 23.0865 79.6663 25.811 79.6663L26.0645 79.6724C26.2371 79.6805 26.4081 79.6988 26.574 79.7252C26.8224 77.3701 28.7807 75.4102 31.3243 75.4102L31.5778 75.4173C31.7936 75.4285 32.0043 75.4549 32.2099 75.4935C32.729 73.4554 34.5448 71.8654 36.837 71.8654L37.0905 71.8725ZM36.837 74.9134C35.8864 74.9134 35.1148 75.7079 35.1148 76.6863V92.9964C35.1148 93.5837 34.6517 94.0602 34.0807 94.0602C33.5107 94.0602 33.0476 93.5837 33.0476 92.9964V80.2312C33.0476 79.2528 32.276 78.4583 31.3243 78.4583C30.3737 78.4583 29.6021 79.2528 29.6021 80.2312V92.9964C29.6021 93.5837 29.139 94.0592 28.568 94.0602C27.998 94.0602 27.5349 93.5837 27.5349 92.9964V84.4863C27.5349 83.5068 26.7623 82.7144 25.811 82.7144C24.8597 82.7144 24.0886 83.5079 24.0884 84.4863V103.988L24.151 104.48C24.737 109.102 27.6183 113.139 32.0134 114.27C33.5697 114.67 36.2955 114.582 37.8712 114.27C41.5059 113.55 44.3071 111.747 46.1412 108.243L52.4366 93.1691C52.8082 92.2781 52.4794 91.2418 51.6692 90.748C50.804 90.2207 49.6884 90.4889 49.1408 91.3566L45.3412 97.3724C44.9676 97.9647 44.074 97.6914 44.074 96.9863V79.5231C44.074 78.5436 43.3024 77.7501 42.3507 77.7501C41.4001 77.7501 40.6285 78.5436 40.6285 79.5231V92.9964C40.6285 93.5837 40.1654 94.0592 39.5944 94.0602C39.0244 94.0602 38.5613 93.5837 38.5613 92.9964V76.6863C38.5613 75.7069 37.7887 74.9134 36.837 74.9134Z" fill="#FF6F3D"/>
<path d="M82.1061 78.9784C82.6679 78.9784 83.1239 79.4336 83.1239 79.9944C83.1239 80.5552 82.6679 81.0104 82.1061 81.0104H71.9275C71.3657 81.0104 70.9097 80.5552 70.9097 79.9944C70.9097 79.4336 71.3657 78.9784 71.9275 78.9784H82.1061Z" fill="#AAAAAA"/>
<path d="M47.2008 3.07377L47.271 3.15089C47.5968 3.54998 47.5733 4.13866 47.2008 4.51062C46.8283 4.88258 46.2379 4.90626 45.8389 4.58083L45.7616 4.51062L43.7259 2.4788C43.3279 2.08204 43.3279 1.4387 43.7259 1.04195C44.1228 0.645196 44.7681 0.645196 45.1651 1.04195L47.2008 3.07377Z" fill="#FF6F3D"/>
<path d="M49.8329 8.57555L49.7627 8.49834C49.437 8.09925 49.4604 7.51067 49.8329 7.13871C50.2055 6.76664 50.7958 6.74297 51.1948 7.0685L51.2722 7.13871L53.3079 9.17043C53.7059 9.56729 53.7059 10.2105 53.3079 10.6074C52.9109 11.0041 52.2656 11.0041 51.8686 10.6074L49.8329 8.57555Z" fill="#FF6F3D"/>
<path d="M51.2722 4.51062L51.1948 4.58073C50.7958 4.90626 50.2055 4.88259 49.8329 4.51062C49.4604 4.13866 49.437 3.54998 49.7627 3.15089L49.8329 3.07378L51.8686 1.04195C52.2656 0.645196 52.9109 0.645196 53.3079 1.04195C53.7059 1.4387 53.7059 2.08204 53.3079 2.4788L51.2722 4.51062Z" fill="#FF6F3D"/>
<path d="M45.7616 7.13862L45.8389 7.06851C46.2379 6.74298 46.8283 6.76665 47.2008 7.13862C47.5733 7.51058 47.5968 8.09926 47.271 8.49835L47.2008 8.57546L45.1651 10.6073C44.7681 11.004 44.1228 11.004 43.7259 10.6073C43.3279 10.2105 43.3279 9.5672 43.7259 9.17044L45.7616 7.13862Z" fill="#FF6F3D"/>
<path d="M4.45085 51.8433L4.52109 51.9205C4.84721 52.3188 4.82349 52.9081 4.45085 53.2799C4.07822 53.6518 3.48847 53.6752 3.08866 53.35L3.0114 53.2799L0.975899 51.2479C0.578427 50.8506 0.578427 50.2075 0.975899 49.8113C1.37337 49.414 2.01788 49.414 2.41535 49.8113L4.45085 51.8433Z" fill="#FF6F3D"/>
<path d="M7.08325 57.3447L7.01301 57.2675C6.68689 56.8682 6.71061 56.2799 7.08325 55.9081C7.45588 55.5362 8.04563 55.5128 8.44544 55.838L8.52269 55.9081L10.5582 57.9401C10.9557 58.3363 10.9557 58.9795 10.5582 59.3767C10.1607 59.773 9.51622 59.773 9.11875 59.3767L7.08325 57.3447Z" fill="#FF6F3D"/>
<path d="M8.52269 53.2799L8.44544 53.35C8.04563 53.6752 7.45588 53.6518 7.08325 53.2799C6.71061 52.9081 6.68689 52.3188 7.01301 51.9205L7.08325 51.8433L9.11875 49.8113C9.51622 49.414 10.1607 49.414 10.5582 49.8113C10.9557 50.2075 10.9557 50.8517 10.5582 51.2479L8.52269 53.2799Z" fill="#FF6F3D"/>
<path d="M3.0114 55.9081L3.08866 55.838C3.48847 55.5128 4.07822 55.5362 4.45085 55.9081C4.82349 56.2799 4.84721 56.8692 4.52109 57.2675L4.45085 57.3447L2.41535 59.3767C2.01788 59.774 1.37337 59.774 0.975899 59.3767C0.578427 58.9805 0.578427 58.3363 0.975899 57.9401L3.0114 55.9081Z" fill="#FF6F3D"/>
<path d="M153.058 74.1953L153.128 74.2726C153.454 74.6708 153.43 75.2601 153.058 75.632C152.685 76.0038 152.095 76.0272 151.696 75.7021L151.618 75.632L149.583 73.5999C149.185 73.2027 149.185 72.5595 149.583 72.1633C149.98 71.766 150.625 71.766 151.022 72.1633L153.058 74.1953Z" fill="#FF6F3D"/>
<path d="M155.69 79.696L155.62 79.6188C155.294 79.2195 155.317 78.6313 155.69 78.2594C156.062 77.8875 156.653 77.8642 157.052 78.1893L157.129 78.2594L159.165 80.2914C159.563 80.6877 159.563 81.3308 159.165 81.7281C158.768 82.1243 158.122 82.1243 157.725 81.7281L155.69 79.696Z" fill="#FF6F3D"/>
<path d="M157.129 75.632L157.052 75.7021C156.653 76.0272 156.062 76.0038 155.69 75.632C155.317 75.2601 155.294 74.6708 155.62 74.2726L155.69 74.1953L157.725 72.1633C158.122 71.766 158.768 71.766 159.165 72.1633C159.563 72.5595 159.563 73.2037 159.165 73.5999L157.129 75.632Z" fill="#FF6F3D"/>
<path d="M151.618 78.2594L151.696 78.1893C152.095 77.8642 152.685 77.8875 153.058 78.2594C153.43 78.6313 153.454 79.2205 153.128 79.6188L153.058 79.696L151.022 81.7281C150.625 82.1253 149.98 82.1253 149.583 81.7281C149.185 81.3318 149.185 80.6877 149.583 80.2914L151.618 78.2594Z" fill="#FF6F3D"/>
<path d="M102.463 33.2563L116.713 47.4805H103.481C102.919 47.4805 102.463 47.0254 102.463 46.4645V33.2563Z" fill="#AAAAAA"/>
<path d="M97.3739 27.5482L110.606 23.0964L123.838 27.5482V39.114C123.838 43.1345 121.852 46.8966 118.53 49.1694L111.181 54.1987C110.835 54.4364 110.377 54.4364 110.031 54.1987L102.682 49.1694C99.3597 46.8966 97.3739 43.1345 97.3739 39.114V27.5482Z" fill="#808080"/>
<path d="M117.038 32.413C117.637 31.9249 118.522 31.9602 119.081 32.5182C119.639 33.0761 119.674 33.9586 119.185 34.5572L119.081 34.6732L109.867 43.8713L104.268 38.2819L104.162 38.1667C103.673 37.5682 103.709 36.6848 104.268 36.1268C104.827 35.569 105.711 35.5346 106.311 36.0227L106.427 36.1268L109.867 39.5608L116.922 32.5182L117.038 32.413Z" fill="white"/>
<path d="M116.013 70.2946C116.301 69.8547 116.873 69.7094 117.331 69.9451L117.421 69.9979L118.488 70.6939C121.122 72.4191 124.684 74.8473 127.466 77.681C130.501 80.7717 132.921 84.6753 131.627 88.8501L131.491 89.2544C130.526 91.8859 127.811 93.0635 125.229 93.5552C122.919 93.9952 120.418 93.9484 118.533 93.7229L117.765 93.6152C117.758 93.6141 117.75 93.6152 117.744 93.6152C117.694 94.5052 117.8 95.3261 118.104 95.8006C118.237 96.0058 118.398 96.1339 118.626 96.1989C118.876 96.27 119.302 96.2914 119.992 96.0861L120.092 96.0607C120.599 95.9642 121.106 96.2649 121.258 96.7689C121.419 97.3063 121.113 97.8723 120.575 98.0328L120.231 98.1263C119.438 98.3193 118.713 98.3376 118.067 98.1537C117.306 97.9373 116.758 97.4689 116.391 96.8989C115.705 95.8331 115.649 94.4107 115.717 93.4048L115.746 93.1681C115.958 92.017 117.116 91.4541 118.088 91.6096L118.787 91.7061C120.507 91.9113 122.789 91.952 124.848 91.5598C127.261 91.1005 129.002 90.1282 129.579 88.5564L129.677 88.2628C130.62 85.2259 128.96 82.1068 126.012 79.1034C123.39 76.4333 119.998 74.1148 117.38 72.3977L116.31 71.7007L116.225 71.6388C115.823 71.3157 115.726 70.7355 116.013 70.2946Z" fill="#AAAAAA"/>
<defs>
<filter id="filter0_d_3130_5502" x="20.2848" y="25.2574" width="112.446" height="139.73" filterUnits="userSpaceOnUse" color-interpolation-filters="sRGB">
<feFlood flood-opacity="0" result="BackgroundImageFix"/>
<feColorMatrix in="SourceAlpha" type="matrix" values="0 0 0 0 0 0 0 0 0 0 0 0 0 0 0 0 0 0 127 0" result="hardAlpha"/>
<feOffset dy="7"/>
<feGaussianBlur stdDeviation="7.5"/>
<feColorMatrix type="matrix" values="0 0 0 0 0.333333 0 0 0 0 0.333333 0 0 0 0 0.333333 0 0 0 0.1 0"/>
<feBlend mode="normal" in2="BackgroundImageFix" result="effect1_dropShadow_3130_5502"/>
<feBlend mode="normal" in="SourceGraphic" in2="effect1_dropShadow_3130_5502" result="shape"/>
</filter>
<filter id="filter1_d_3130_5502" x="20.2848" y="25.2574" width="112.446" height="139.73" filterUnits="userSpaceOnUse" color-interpolation-filters="sRGB">
<feFlood flood-opacity="0" result="BackgroundImageFix"/>
<feColorMatrix in="SourceAlpha" type="matrix" values="0 0 0 0 0 0 0 0 0 0 0 0 0 0 0 0 0 0 127 0" result="hardAlpha"/>
<feOffset dy="7"/>
<feGaussianBlur stdDeviation="7.5"/>
<feColorMatrix type="matrix" values="0 0 0 0 0.333333 0 0 0 0 0.333333 0 0 0 0 0.333333 0 0 0 0.1 0"/>
<feBlend mode="normal" in2="BackgroundImageFix" result="effect1_dropShadow_3130_5502"/>
<feBlend mode="normal" in="SourceGraphic" in2="effect1_dropShadow_3130_5502" result="shape"/>
</filter>
</defs>
</svg>
