<svg width="16" height="16" viewBox="0 0 16 16" fill="none" xmlns="http://www.w3.org/2000/svg">
<path d="M6.5 1C5.80964 1 5.25 1.55964 5.25 2.25V3.5H2.50001C2.22387 3.5 2.00003 3.72385 2.00002 3.99998L2 4.5C2 4.77614 2.22386 5 2.5 5H3L3.00004 13C3.00004 14.1046 3.89547 15 5.00004 15H11C12.1046 15 13 14.1046 13 13L13 5H13.5C13.7761 5 14 4.77614 14 4.5L14 4.00002C14 3.72387 13.7762 3.5 13.5 3.5H10.75V2.25C10.75 1.55964 10.1904 1 9.5 1H6.5ZM9.25 3.5H6.75V2.5H9.25V3.5ZM4.5 5H11.5L11.5 13C11.5 13.2761 11.2762 13.5 11 13.5H5.00004C4.7239 13.5 4.50004 13.2761 4.50004 13L4.5 5ZM6.50004 6C6.91426 6 7.25004 6.33579 7.25004 6.75V11.75C7.25004 12.1642 6.91426 12.5 6.50004 12.5C6.08583 12.5 5.75004 12.1642 5.75004 11.75V6.75C5.75004 6.33579 6.08583 6 6.50004 6ZM10.25 6.75C10.25 6.33579 9.91426 6 9.50004 6C9.08583 6 8.75004 6.33579 8.75004 6.75V11.75C8.75004 12.1642 9.08583 12.5 9.50004 12.5C9.91426 12.5 10.25 12.1642 10.25 11.75V6.75Z" fill="#192435"/>
</svg>
