<svg width="32" height="32" viewBox="0 0 32 32" fill="none" xmlns="http://www.w3.org/2000/svg">
<path d="M7 1.5H20.5859C20.7185 1.50004 20.8457 1.55275 20.9395 1.64648L26.3535 7.06055C26.4472 7.15428 26.5 7.28151 26.5 7.41406V29C26.5 29.8284 25.8284 30.5 25 30.5H7C6.17157 30.5 5.5 29.8284 5.5 29V3C5.5 2.17157 6.17157 1.5 7 1.5Z" fill="white" stroke="#BBBBBB"/>
<path d="M20.5 2V6C20.5 6.82843 21.1716 7.5 22 7.5H26" stroke="#BBBBBB"/>
<path d="M16 18C16 16.8954 16.8954 16 18 16H26C27.1046 16 28 16.8954 28 18V26C28 27.1046 27.1046 28 26 28H18C16.8954 28 16 27.1046 16 26V18Z" fill="#5951BB"/>
<path d="M25.3504 18.4596L22.9604 25.5996H21.0304L18.6504 18.4596H20.4804L21.6404 22.4196C21.6737 22.5196 21.7137 22.6729 21.7604 22.8796C21.8071 23.0796 21.8537 23.2896 21.9004 23.5096C21.9537 23.7229 21.9871 23.8996 22.0004 24.0396C22.0204 23.8996 22.0504 23.7229 22.0904 23.5096C22.1371 23.2963 22.1837 23.0896 22.2304 22.8896C22.2771 22.6829 22.3171 22.5296 22.3504 22.4296L23.5304 18.4596H25.3504Z" fill="white"/>
<path d="M11.369 9.39561C11.7617 9.07556 12.3408 9.09907 12.7069 9.46495L15.243 12.0001H21.9998C22.552 12.0002 22.9997 12.448 22.9998 13.0001C22.9998 13.5523 22.5521 14 21.9998 14.0001H15.243L12.9998 16.2433V18.0001H13.9998L14.1024 18.005C14.6064 18.0564 14.9997 18.4826 14.9998 19.0001V23.0001L14.995 23.1026C14.9471 23.573 14.5727 23.9472 14.1024 23.9952L13.9998 24.0001H9.99985C9.48217 24.0001 9.05606 23.6068 9.00473 23.1026L8.99985 23.0001V19.0001C9.00001 18.448 9.44766 18.0001 9.99985 18.0001H10.9998V16.2423L8.46469 13.7071C8.07432 13.3166 8.07422 12.6835 8.46469 12.2931L11.2928 9.46495L11.369 9.39561ZM10.9998 22.0001H12.9998V20.0001H10.9998V22.0001ZM10.5858 13.0001L11.9998 14.4142L13.4139 13.0001L11.9998 11.586L10.5858 13.0001Z" fill="#BDB9E4"/>
</svg>
